# xmcd
#
# Track frame offsets:
#	150
#	15783
#	35761
#	58198
#	74591
#	89285
#	105386
#	121644
#	146440
#	162102
#	178354
#	189618
#	209882
#	223448
#	240899
#
# Disc length: 3431 seconds
#
# Revision: 0
# Processed by: cddbd v1.5.2PL0 Copyright (c) Steve Scherf et al.
# Submitted via: audiograbber 1.83.01
#
DISCID=da0d650f
DTITLE=Jason Isbell - Something More Than Free
DYEAR=2015
DGENRE=Country
TTITLE0=Let It Be
TTITLE1=Feel
TTITLE2=Maggie May
TTITLE3=Kokomo
TTITLE4=Let It Be Me
TTITLE5=Lost in Your Eyes
TTITLE6=Morning Train (9 to 5)
TTITLE7=Just the Way You Are
TTITLE8=Against All Odds (Take a Look At Me Now)
TTITLE9=Kiss from a Rose
TTITLE10=How Deep Is Your Love
TTITLE11=Drowning
TTITLE12=Save the Best for Last
TTITLE13=Song Sung Blue
TTITLE14=Tell It to My Heart
EXTD=
EXTT0=
EXTT1=
EXTT2=
EXTT3=
EXTT4=
EXTT5=
EXTT6=
EXTT7=
EXTT8=
EXTT9=
EXTT10=
EXTT11=
EXTT12=
EXTT13=
EXTT14=
PLAYORDER=
